<?xml version="1.0" encoding="utf-8"?>
<!-- Generator: Adobe Illustrator 24.0.2, SVG Export Plug-In . SVG Version: 6.00 Build 0)  -->
<svg version="1.1" xmlns="http://www.w3.org/2000/svg" xmlns:xlink="http://www.w3.org/1999/xlink" x="0px" y="0px"
	 viewBox="0 0 230 230" style="enable-background:new 0 0 230 230;" xml:space="preserve">
<style type="text/css">
	.st0{fill:none;stroke:#AE7FFF;stroke-width:5;stroke-miterlimit:10;}
</style>
<g id="CapS">
	<path id="CapS1" class="st0" d="M102.5,80.1c0,0-14.2-20.3-31.8-5.9c0,0-9.7,8.1-4.5,19.5c3.6,7.9,9.3,10.2,19.5,14.7
		s21.8,8.7,19.5,24.3c-2,13.6-12.9,18.9-23.6,17.8c-10.8-1.1-18.5-8.5-22-16.5"/>
</g>
<g id="LowS">
	<path id="LowS1_2_" class="st0" d="M165.9,106.7c0,0-9.3-12.7-20.9-3.7c0,0-6.4,5-3,12.1c2.3,4.9,6.1,6.3,12.8,9.2
		c6.7,2.8,14.3,5.4,12.8,15.1c-1.3,8.5-8.5,11.8-15.5,11.1c-7.1-0.7-12.1-5.3-14.4-10.2"/>
</g>
</svg>
